<?xml version="1.0" encoding="UTF-8" standalone="no"?>
<!DOCTYPE svg PUBLIC "-//W3C//DTD SVG 1.1//EN" "http://www.w3.org/Graphics/SVG/1.1/DTD/svg11.dtd">
<svg width="100%" height="100%" viewBox="0 0 209 209" version="1.1" xmlns="http://www.w3.org/2000/svg" xmlns:xlink="http://www.w3.org/1999/xlink" xml:space="preserve" xmlns:serif="http://www.serif.com/" style="fill-rule:evenodd;clip-rule:evenodd;stroke-miterlimit:10;">
    <g id="Layer-1" serif:id="Layer 1" transform="matrix(4.16667,0,0,4.16667,0,0)">
        <g transform="matrix(1,0,0,1,23.9697,24.9655)">
            <path d="M0,1.599C0,1.599 -0.544,6.977 12.048,4.662C12.048,4.662 18.65,3.471 14.729,-0.579C14.729,-0.579 9.7,-5.378 10.244,2.96C10.244,2.96 10.602,0.51 12.524,-0.392C12.524,-0.392 14.788,0.034 13.546,1.463C13.546,1.463 8.305,6.364 1.77,0.034C1.77,0.034 0.068,-1.328 0,1.599" style="fill:#231f20;fill-rule:nonzero;"/>
        </g>
        <g transform="matrix(1,0,0,1,22.8164,17.006)">
            <path d="M0,-5.234L-1.323,-5.234L-1.323,0.016C-1.323,0.154 -1.474,0.223 -1.777,0.223C-2.081,0.223 -2.232,0.154 -2.232,0.016L-2.232,-5.234L-3.555,-5.234L-3.704,-5.234C-3.742,-5.245 -3.761,-5.28 -3.761,-5.341C-3.761,-5.402 -3.742,-5.438 -3.704,-5.449C-3.687,-5.454 -3.637,-5.457 -3.555,-5.457L0,-5.457C0.138,-5.457 0.207,-5.426 0.207,-5.366C0.207,-5.278 0.138,-5.234 0,-5.234" style="fill:#231f20;fill-rule:nonzero;"/>
        </g>
        <g transform="matrix(1,0,0,1,25.9424,13.0373)">
            <path d="M0,2.637L0,3.993C0,4.081 -0.036,4.137 -0.108,4.158C-0.137,4.169 -0.207,4.175 -0.318,4.175C-0.436,4.175 -0.505,4.169 -0.527,4.158C-0.601,4.137 -0.637,4.081 -0.637,3.993L-0.637,2.381C-0.637,2.26 -0.675,2.182 -0.75,2.149C-0.788,2.133 -0.867,2.125 -0.986,2.125C-1.105,2.125 -1.238,2.177 -1.385,2.282C-1.53,2.387 -1.604,2.48 -1.604,2.563L-1.604,3.993C-1.604,4.081 -1.641,4.137 -1.713,4.158C-1.741,4.169 -1.811,4.175 -1.922,4.175C-2.039,4.175 -2.109,4.169 -2.132,4.158C-2.204,4.137 -2.24,4.081 -2.24,3.993L-2.24,-1.356C-2.24,-1.445 -2.204,-1.499 -2.132,-1.521C-2.109,-1.532 -2.039,-1.538 -1.922,-1.538C-1.811,-1.538 -1.741,-1.532 -1.713,-1.521C-1.641,-1.499 -1.604,-1.445 -1.604,-1.356L-1.604,2.042C-1.599,2.136 -1.557,2.158 -1.48,2.108C-1.25,1.959 -1.031,1.885 -0.822,1.885C-0.603,1.885 -0.411,1.958 -0.247,2.104C-0.082,2.25 0,2.428 0,2.637" style="fill:#231f20;fill-rule:nonzero;"/>
        </g>
        <g transform="matrix(1,0,0,1,27.6279,17.0839)">
            <path d="M0,-1.893C-0.252,-1.893 -0.463,-1.796 -0.633,-1.602C-0.803,-1.409 -0.888,-1.182 -0.888,-0.921C-0.888,-0.667 -0.812,-0.452 -0.658,-0.278C-0.504,-0.103 -0.296,-0.016 -0.033,-0.016C0.246,-0.016 0.457,-0.11 0.6,-0.299L0.6,-1.586C0.446,-1.79 0.246,-1.893 0,-1.893M0.032,-2.1C0.24,-2.1 0.43,-2.036 0.6,-1.91L0.6,-1.918C0.6,-2.006 0.637,-2.061 0.709,-2.083C0.731,-2.094 0.801,-2.1 0.919,-2.1C1.03,-2.1 1.1,-2.094 1.128,-2.083C1.2,-2.061 1.236,-2.006 1.236,-1.918L1.236,-0.041C1.236,0.047 1.201,0.102 1.129,0.124C1.102,0.135 1.033,0.141 0.923,0.141C0.807,0.141 0.737,0.135 0.716,0.124C0.645,0.102 0.608,0.047 0.608,-0.041C0.415,0.124 0.187,0.207 -0.078,0.207C-0.381,0.207 -0.631,0.104 -0.826,-0.104C-1.021,-0.311 -1.119,-0.565 -1.119,-0.863C-1.119,-1.228 -1.014,-1.526 -0.803,-1.755C-0.592,-1.985 -0.313,-2.1 0.032,-2.1" style="fill:#231f20;fill-rule:nonzero;"/>
        </g>
        <g transform="matrix(1,0,0,1,29.5908,15.1529)">
            <path d="M0,-0.338C0,-0.421 -0.049,-0.462 -0.148,-0.462L-0.297,-0.462C-0.336,-0.473 -0.355,-0.509 -0.355,-0.569C-0.355,-0.63 -0.336,-0.666 -0.297,-0.677C-0.28,-0.683 -0.227,-0.685 -0.136,-0.685C-0.045,-0.685 0,-0.721 0,-0.793L0,-2.066C0,-2.198 0.109,-2.314 0.327,-2.413C0.383,-2.441 0.437,-2.455 0.486,-2.455C0.587,-2.455 0.637,-2.397 0.637,-2.281L0.637,-0.793C0.637,-0.727 0.681,-0.693 0.768,-0.693L0.987,-0.693C1.106,-0.693 1.166,-0.652 1.166,-0.569C1.166,-0.498 1.106,-0.462 0.987,-0.462L0.861,-0.462L0.768,-0.462C0.681,-0.462 0.637,-0.418 0.637,-0.33L0.637,1.935C0.637,2.024 0.601,2.079 0.528,2.101C0.5,2.112 0.431,2.117 0.318,2.117C0.207,2.117 0.138,2.112 0.109,2.101C0.037,2.079 0,2.024 0,1.935L0,-0.338Z" style="fill:#231f20;fill-rule:nonzero;"/>
        </g>
        <g transform="matrix(1,0,0,1,14.645,21.7259)">
            <path d="M0,-5.889L0,0.02C0,0.112 0.046,0.158 0.138,0.158L0.888,0.158C1.736,0.158 2.479,-0.121 3.118,-0.681C3.795,-1.275 4.134,-2.015 4.134,-2.905C4.134,-3.801 3.821,-4.558 3.196,-5.178C2.598,-5.771 1.881,-6.074 1.046,-6.087C0.592,-6.093 0.273,-6.074 0.089,-6.027C0.029,-6.014 0,-5.968 0,-5.889M-0.543,0.444C-0.905,0.444 -1.085,0.362 -1.085,0.198L-1.085,-6.087C-1.085,-6.251 -0.905,-6.333 -0.543,-6.333L1.065,-6.333C2.059,-6.333 2.864,-6.011 3.482,-5.367C4.101,-4.722 4.41,-3.91 4.41,-2.93C4.41,-1.917 4.039,-1.091 3.295,-0.453C2.591,0.145 1.733,0.444 0.72,0.444L-0.543,0.444Z" style="fill:#231f20;fill-rule:nonzero;"/>
        </g>
        <g transform="matrix(1,0,0,1,20.5635,22.0173)">
            <path d="M0,-2.259C-0.301,-2.259 -0.553,-2.143 -0.755,-1.912C-0.958,-1.681 -1.06,-1.41 -1.06,-1.1C-1.06,-0.796 -0.968,-0.54 -0.785,-0.332C-0.602,-0.124 -0.353,-0.02 -0.039,-0.02C0.294,-0.02 0.546,-0.132 0.716,-0.357L0.716,-1.893C0.533,-2.137 0.294,-2.259 0,-2.259M0.039,-2.506C0.287,-2.506 0.514,-2.43 0.716,-2.279L0.716,-2.289C0.716,-2.394 0.76,-2.46 0.846,-2.486C0.873,-2.499 0.956,-2.506 1.096,-2.506C1.229,-2.506 1.312,-2.499 1.346,-2.486C1.433,-2.46 1.477,-2.394 1.477,-2.289L1.477,-0.049C1.477,0.056 1.434,0.122 1.348,0.148C1.315,0.161 1.232,0.168 1.101,0.168C0.963,0.168 0.881,0.161 0.854,0.148C0.769,0.122 0.726,0.056 0.726,-0.049C0.496,0.148 0.223,0.247 -0.093,0.247C-0.455,0.247 -0.752,0.123 -0.986,-0.124C-1.219,-0.372 -1.336,-0.674 -1.336,-1.03C-1.336,-1.466 -1.21,-1.821 -0.958,-2.095C-0.706,-2.369 -0.374,-2.506 0.039,-2.506" style="fill:#231f20;fill-rule:nonzero;"/>
        </g>
        <g transform="matrix(1,0,0,1,25.5889,21.2895)">
            <path d="M0,-0.937L0,0.681C0,0.786 -0.044,0.852 -0.13,0.878C-0.163,0.892 -0.247,0.898 -0.38,0.898C-0.521,0.898 -0.604,0.892 -0.63,0.878C-0.717,0.852 -0.76,0.786 -0.76,0.681L-0.76,-1.243C-0.76,-1.387 -0.805,-1.479 -0.896,-1.519C-0.94,-1.539 -1.035,-1.549 -1.177,-1.549C-1.319,-1.549 -1.478,-1.486 -1.652,-1.361C-1.827,-1.236 -1.914,-1.124 -1.914,-1.026L-1.914,0.681C-1.914,0.786 -1.957,0.852 -2.044,0.878C-2.077,0.892 -2.161,0.898 -2.294,0.898C-2.435,0.898 -2.518,0.892 -2.544,0.878C-2.631,0.852 -2.674,0.786 -2.674,0.68L-2.674,-1.597C-2.674,-1.703 -2.631,-1.769 -2.546,-1.795C-2.52,-1.808 -2.437,-1.815 -2.299,-1.815C-2.167,-1.815 -2.085,-1.808 -2.053,-1.795C-1.967,-1.768 -1.924,-1.7 -1.924,-1.591C-1.924,-1.53 -1.918,-1.499 -1.904,-1.499C-1.891,-1.499 -1.849,-1.522 -1.776,-1.568C-1.5,-1.746 -1.236,-1.835 -0.986,-1.835C-0.724,-1.835 -0.493,-1.748 -0.296,-1.573C-0.099,-1.399 0,-1.187 0,-0.937" style="fill:#231f20;fill-rule:nonzero;"/>
        </g>
        <g transform="matrix(1,0,0,1,26.2549,20.8853)">
            <path d="M0,0C0,-0.387 0.138,-0.716 0.414,-0.988C0.69,-1.26 1.028,-1.396 1.43,-1.396C1.667,-1.396 1.903,-1.292 2.141,-1.086C2.174,-1.054 2.189,-1.015 2.189,-0.97C2.189,-0.912 2.163,-0.883 2.11,-0.883C2.084,-0.883 2.054,-0.892 2.021,-0.911C1.756,-1.07 1.558,-1.149 1.425,-1.149C1.127,-1.149 0.928,-1.067 0.829,-0.904C0.782,-0.681 0.76,-0.379 0.76,0C0.76,0.38 0.782,0.681 0.829,0.904C0.928,1.068 1.127,1.149 1.425,1.149C1.558,1.149 1.756,1.067 2.021,0.903C2.054,0.883 2.084,0.873 2.11,0.873C2.163,0.873 2.189,0.903 2.189,0.962C2.189,1.008 2.174,1.047 2.141,1.081C1.903,1.291 1.667,1.396 1.43,1.396C1.028,1.396 0.69,1.26 0.414,0.988C0.138,0.716 0,0.387 0,0" style="fill:#231f20;fill-rule:nonzero;"/>
        </g>
        <g transform="matrix(1,0,0,1,30.209,20.7917)">
            <path d="M0,0.158C0.231,0.158 0.44,0.093 0.626,-0.036C0.812,-0.165 0.904,-0.333 0.904,-0.538C0.904,-0.89 0.676,-1.066 0.219,-1.066C-0.112,-1.066 -0.334,-0.973 -0.447,-0.787C-0.486,-0.615 -0.51,-0.383 -0.517,-0.091C-0.523,-0.011 -0.457,0.052 -0.317,0.098C-0.205,0.138 -0.1,0.158 0,0.158M-0.048,0.365L-0.207,0.365C-0.287,0.359 -0.36,0.377 -0.427,0.42C-0.493,0.463 -0.523,0.525 -0.517,0.604C-0.503,0.778 -0.483,0.92 -0.457,1.033C-0.396,1.134 -0.313,1.197 -0.207,1.223C-0.16,1.237 -0.047,1.243 0.134,1.243C0.359,1.243 0.593,1.168 0.833,1.017C0.866,0.997 0.896,0.987 0.923,0.987C0.977,0.987 1.003,1.016 1.003,1.077C1.003,1.124 0.986,1.164 0.953,1.198C0.736,1.392 0.467,1.49 0.145,1.49C-0.257,1.49 -0.594,1.36 -0.867,1.098C-1.14,0.838 -1.276,0.513 -1.276,0.123C-1.276,-0.279 -1.13,-0.622 -0.837,-0.906C-0.545,-1.19 -0.165,-1.332 0.302,-1.332C0.52,-1.332 0.72,-1.269 0.904,-1.145C1.102,-1 1.2,-0.819 1.2,-0.602C1.2,-0.286 1.089,-0.046 0.866,0.118C0.643,0.283 0.339,0.365 -0.048,0.365" style="fill:#231f20;fill-rule:nonzero;"/>
        </g>
        <g transform="matrix(1,0,0,1,37.6113,16.2005)">
            <path d="M0,11.739C-1.353,14.894 -2.147,16.972 -5.048,19.545C-7.95,22.116 -11.446,23.403 -15.534,23.403C-20.612,23.403 -24.717,21.82 -27.85,18.654C-30.982,15.489 -32.548,11.384 -32.548,6.34C-32.548,1.459 -30.908,-2.761 -27.627,-6.323C-24.346,-9.884 -20.315,-11.664 -15.534,-11.664C-10.16,-11.664 -6.137,-9.933 -3.466,-6.471C-3.104,-5.977 -2.922,-5.679 -2.922,-5.58C-2.922,-5.086 -3.137,-4.839 -3.564,-4.839C-3.796,-4.839 -4.093,-5.036 -4.455,-5.432C-7.653,-8.861 -11.149,-10.576 -14.94,-10.576C-18.996,-10.576 -22.08,-8.828 -24.189,-5.333C-26.003,-2.333 -26.91,1.558 -26.91,6.34C-26.91,11.218 -25.937,15.028 -23.992,17.764C-21.948,20.633 -18.964,22.066 -15.04,22.066C-12.6,22.066 -9.93,21.193 -7.027,19.446C-3.796,17.468 -1.83,14.999 -2.03,12.197L0,11.739Z" style="fill:#231f20;fill-rule:nonzero;stroke:#231f20;stroke-width:0.75px;"/>
        </g>
        <g transform="matrix(1,0,0,1,44.4629,34.5454)">
            <path d="M0,12.397C-0.408,12.49 -0.612,12.378 -0.612,12.063C-0.612,11.933 -0.539,11.832 -0.391,11.757C0.537,11.349 1.001,10.682 1.001,9.754L1.001,6.917C1.001,6.751 0.974,6.667 0.918,6.667C0.899,6.667 0.788,6.732 0.584,6.861C-0.195,7.362 -0.937,7.613 -1.642,7.613C-2.384,7.613 -3.032,7.367 -3.589,6.876C-4.146,6.384 -4.424,5.786 -4.424,5.081L-4.424,0.519C-4.424,0.222 -4.303,0.037 -4.062,-0.038C-3.97,-0.075 -3.737,-0.093 -3.366,-0.093C-2.977,-0.075 -2.745,-0.056 -2.671,-0.038C-2.43,0.037 -2.309,0.222 -2.309,0.519L-2.309,5.943C-2.309,6.352 -2.18,6.611 -1.92,6.722C-1.79,6.778 -1.521,6.805 -1.113,6.805C-0.705,6.805 -0.251,6.629 0.25,6.277C0.751,5.925 1.001,5.61 1.001,5.332L1.001,0.519C1.001,0.222 1.121,0.037 1.362,-0.038C1.437,-0.056 1.669,-0.075 2.058,-0.093C2.429,-0.093 2.66,-0.075 2.754,-0.038C2.994,0.037 3.115,0.222 3.115,0.519L3.115,8.558C3.115,9.411 2.81,10.222 2.197,10.992C1.585,11.761 0.853,12.231 0,12.397" style="fill:#231f20;fill-rule:nonzero;"/>
        </g>
        <g transform="matrix(1,0,0,1,22.4805,25.2145)">
            <path d="M0,1.599C0,1.599 0.545,6.977 -12.047,4.662C-12.047,4.662 -18.65,3.471 -14.728,-0.579C-14.728,-0.579 -9.699,-5.378 -10.244,2.96C-10.244,2.96 -10.601,0.51 -12.524,-0.392C-12.524,-0.392 -14.787,0.034 -13.545,1.463C-13.545,1.463 -8.304,6.364 -1.77,0.034C-1.77,0.034 -0.067,-1.328 0,1.599" style="fill:#fff;fill-rule:nonzero;"/>
        </g>
        <g transform="matrix(1,0,0,1,22.9258,24.9655)">
            <path d="M0,1.599C0,1.599 0.544,6.977 -12.048,4.662C-12.048,4.662 -18.651,3.471 -14.729,-0.579C-14.729,-0.579 -9.7,-5.378 -10.244,2.96C-10.244,2.96 -10.602,0.51 -12.524,-0.392C-12.524,-0.392 -14.788,0.034 -13.546,1.463C-13.546,1.463 -8.305,6.364 -1.77,0.034C-1.77,0.034 -0.068,-1.328 0,1.599" style="fill:#231f20;fill-rule:nonzero;"/>
        </g>
        <g transform="matrix(1,0,0,1,30.9727,36.6761)">
            <path d="M0,2.651L0,-1.927C0,-2.225 0.121,-2.42 0.366,-2.514C0.46,-2.532 0.695,-2.541 1.07,-2.541C1.465,-2.541 1.7,-2.523 1.775,-2.486C2.02,-2.411 2.142,-2.225 2.142,-1.927L2.142,3.519C2.142,3.929 2.27,4.19 2.524,4.301C2.652,4.357 2.916,4.384 3.317,4.384C3.719,4.384 4.165,4.209 4.658,3.855C5.149,3.501 5.396,3.184 5.396,2.905L5.396,-1.927C5.396,-2.225 5.519,-2.42 5.763,-2.514C5.856,-2.532 6.092,-2.541 6.467,-2.541C6.862,-2.541 7.097,-2.523 7.172,-2.487C7.416,-2.411 7.538,-2.225 7.538,-1.927L7.538,4.494C7.538,4.793 7.418,4.978 7.177,5.052C7.103,5.09 6.871,5.108 6.481,5.108C6.11,5.108 5.879,5.09 5.786,5.052C5.545,4.979 5.424,4.793 5.424,4.497C5.424,4.329 5.405,4.246 5.368,4.246C5.331,4.246 5.211,4.311 5.007,4.44C4.228,4.941 3.486,5.192 2.781,5.192C2.039,5.192 1.391,4.945 0.834,4.452C0.278,3.96 0,3.359 0,2.651" style="fill:#fff;fill-rule:nonzero;"/>
        </g>
        <g transform="matrix(1,0,0,1,30.6406,37.0492)">
            <path d="M0,2.651L0,-1.927C0,-2.225 0.122,-2.42 0.366,-2.513C0.46,-2.532 0.695,-2.541 1.071,-2.541C1.466,-2.541 1.7,-2.523 1.775,-2.485C2.02,-2.411 2.142,-2.225 2.142,-1.926L2.142,3.519C2.142,3.929 2.27,4.19 2.524,4.301C2.652,4.357 2.916,4.385 3.317,4.385C3.719,4.385 4.166,4.209 4.658,3.855C5.149,3.501 5.396,3.184 5.396,2.905L5.396,-1.926C5.396,-2.225 5.519,-2.419 5.763,-2.513C5.857,-2.532 6.092,-2.541 6.468,-2.541C6.862,-2.541 7.097,-2.523 7.172,-2.486C7.416,-2.411 7.538,-2.225 7.538,-1.927L7.538,4.495C7.538,4.793 7.418,4.979 7.177,5.053C7.103,5.09 6.871,5.109 6.481,5.109C6.11,5.109 5.879,5.09 5.786,5.053C5.545,4.979 5.424,4.794 5.424,4.497C5.424,4.33 5.405,4.247 5.368,4.247C5.331,4.247 5.211,4.311 5.007,4.441C4.229,4.942 3.486,5.192 2.781,5.192C2.039,5.192 1.391,4.946 0.834,4.452C0.278,3.96 0,3.359 0,2.651" style="fill:#231f20;fill-rule:nonzero;"/>
        </g>
    </g>
</svg>
