<?xml version="1.0" encoding="UTF-8" standalone="no"?>
<!DOCTYPE svg PUBLIC "-//W3C//DTD SVG 1.1//EN" "http://www.w3.org/Graphics/SVG/1.1/DTD/svg11.dtd">
<svg width="100%" height="100%" viewBox="0 0 209 209" version="1.1" xmlns="http://www.w3.org/2000/svg" xmlns:xlink="http://www.w3.org/1999/xlink" xml:space="preserve" xmlns:serif="http://www.serif.com/" style="fill-rule:evenodd;clip-rule:evenodd;stroke-miterlimit:10;">
    <g id="Layer-1" serif:id="Layer 1" transform="matrix(4.16667,0,0,4.16667,0,0)">
        <g transform="matrix(1,0,0,1,21.7861,16.1438)">
            <path d="M0,-5.677L-1.435,-5.677L-1.435,0.018C-1.435,0.168 -1.599,0.242 -1.928,0.242C-2.257,0.242 -2.422,0.168 -2.422,0.018L-2.422,-5.677L-3.856,-5.677L-4.018,-5.677C-4.06,-5.689 -4.081,-5.728 -4.081,-5.794C-4.081,-5.859 -4.06,-5.898 -4.018,-5.91C-4,-5.916 -3.946,-5.919 -3.856,-5.919L0,-5.919C0.149,-5.919 0.225,-5.886 0.225,-5.821C0.225,-5.725 0.149,-5.677 0,-5.677" style="fill:#fff;fill-rule:nonzero;"/>
        </g>
        <g transform="matrix(1,0,0,1,25.1768,11.8387)">
            <path d="M0,2.861L0,4.332C0,4.428 -0.039,4.487 -0.118,4.511C-0.148,4.524 -0.224,4.529 -0.345,4.529C-0.473,4.529 -0.548,4.524 -0.572,4.511C-0.651,4.487 -0.69,4.428 -0.69,4.332L-0.69,2.584C-0.69,2.452 -0.732,2.368 -0.814,2.332C-0.855,2.315 -0.94,2.305 -1.07,2.305C-1.199,2.305 -1.343,2.362 -1.501,2.476C-1.661,2.59 -1.74,2.691 -1.74,2.781L-1.74,4.332C-1.74,4.428 -1.779,4.487 -1.858,4.511C-1.888,4.524 -1.964,4.529 -2.085,4.529C-2.212,4.529 -2.288,4.524 -2.312,4.511C-2.391,4.487 -2.43,4.428 -2.43,4.333L-2.43,-1.471C-2.43,-1.566 -2.391,-1.626 -2.312,-1.65C-2.288,-1.662 -2.212,-1.668 -2.085,-1.668C-1.964,-1.668 -1.888,-1.662 -1.858,-1.65C-1.779,-1.626 -1.74,-1.566 -1.74,-1.471L-1.74,2.215C-1.734,2.318 -1.689,2.341 -1.606,2.287C-1.356,2.126 -1.118,2.045 -0.892,2.045C-0.654,2.045 -0.446,2.125 -0.268,2.283C-0.089,2.442 0,2.634 0,2.861" style="fill:#fff;fill-rule:nonzero;"/>
        </g>
        <g transform="matrix(1,0,0,1,27.0049,16.2293)">
            <path d="M0,-2.054C-0.272,-2.054 -0.503,-1.949 -0.687,-1.739C-0.871,-1.528 -0.963,-1.282 -0.963,-1C-0.963,-0.724 -0.88,-0.491 -0.713,-0.302C-0.546,-0.113 -0.321,-0.018 -0.035,-0.018C0.268,-0.018 0.497,-0.12 0.651,-0.325L0.651,-1.721C0.485,-1.943 0.268,-2.054 0,-2.054M0.036,-2.278C0.262,-2.278 0.467,-2.209 0.651,-2.072L0.651,-2.081C0.651,-2.177 0.69,-2.236 0.77,-2.26C0.794,-2.272 0.87,-2.278 0.997,-2.278C1.118,-2.278 1.194,-2.272 1.224,-2.26C1.303,-2.236 1.343,-2.177 1.343,-2.081L1.343,-0.045C1.343,0.051 1.304,0.111 1.226,0.134C1.195,0.146 1.12,0.152 1.001,0.152C0.876,0.152 0.801,0.146 0.777,0.134C0.699,0.111 0.661,0.051 0.661,-0.045C0.45,0.134 0.202,0.224 -0.084,0.224C-0.413,0.224 -0.684,0.112 -0.896,-0.114C-1.108,-0.339 -1.214,-0.613 -1.214,-0.937C-1.214,-1.333 -1.1,-1.656 -0.87,-1.905C-0.642,-2.153 -0.34,-2.278 0.036,-2.278" style="fill:#fff;fill-rule:nonzero;"/>
        </g>
        <g transform="matrix(1,0,0,1,29.1348,14.1361)">
            <path d="M0,-0.369C0,-0.458 -0.054,-0.503 -0.161,-0.503L-0.322,-0.503C-0.364,-0.515 -0.385,-0.554 -0.385,-0.62C-0.385,-0.685 -0.364,-0.724 -0.322,-0.736C-0.305,-0.742 -0.246,-0.745 -0.147,-0.745C-0.049,-0.745 0,-0.784 0,-0.862L0,-2.243C0,-2.387 0.118,-2.513 0.354,-2.619C0.415,-2.65 0.473,-2.664 0.528,-2.664C0.637,-2.664 0.69,-2.602 0.69,-2.476L0.69,-0.862C0.69,-0.79 0.738,-0.754 0.832,-0.754L1.071,-0.754C1.201,-0.754 1.265,-0.709 1.265,-0.62C1.265,-0.542 1.201,-0.503 1.071,-0.503L0.934,-0.503L0.832,-0.503C0.738,-0.503 0.69,-0.455 0.69,-0.359L0.69,2.098C0.69,2.194 0.651,2.253 0.573,2.277C0.542,2.289 0.467,2.295 0.346,2.295C0.225,2.295 0.148,2.289 0.118,2.277C0.04,2.253 0,2.194 0,2.098L0,-0.369Z" style="fill:#fff;fill-rule:nonzero;"/>
        </g>
        <g transform="matrix(1,0,0,1,12.9214,21.265)">
            <path d="M0,-6.389L0,0.022C0,0.122 0.05,0.172 0.149,0.172L0.963,0.172C1.884,0.172 2.689,-0.132 3.382,-0.74C4.117,-1.383 4.484,-2.187 4.484,-3.152C4.484,-4.123 4.145,-4.945 3.468,-5.617C2.818,-6.26 2.041,-6.589 1.135,-6.603C0.642,-6.61 0.296,-6.589 0.097,-6.539C0.032,-6.525 0,-6.474 0,-6.389M-0.588,0.482C-0.981,0.482 -1.178,0.393 -1.178,0.214L-1.178,-6.603C-1.178,-6.782 -0.981,-6.871 -0.588,-6.871L1.156,-6.871C2.233,-6.871 3.107,-6.521 3.778,-5.822C4.449,-5.122 4.784,-4.242 4.784,-3.178C4.784,-2.079 4.381,-1.183 3.575,-0.492C2.811,0.157 1.88,0.482 0.781,0.482L-0.588,0.482Z" style="fill:#fff;fill-rule:nonzero;"/>
        </g>
        <g transform="matrix(1,0,0,1,19.3423,21.5819)">
            <path d="M0,-2.452C-0.327,-2.452 -0.6,-2.327 -0.82,-2.076C-1.04,-1.825 -1.15,-1.531 -1.15,-1.194C-1.15,-0.865 -1.05,-0.587 -0.852,-0.361C-0.653,-0.135 -0.384,-0.023 -0.043,-0.023C0.319,-0.023 0.592,-0.144 0.777,-0.388L0.777,-2.054C0.578,-2.319 0.319,-2.452 0,-2.452M0.042,-2.719C0.312,-2.719 0.557,-2.638 0.777,-2.473L0.777,-2.484C0.777,-2.598 0.824,-2.669 0.917,-2.698C0.946,-2.712 1.037,-2.719 1.189,-2.719C1.333,-2.719 1.423,-2.712 1.459,-2.698C1.554,-2.669 1.601,-2.598 1.601,-2.484L1.601,-0.055C1.601,0.06 1.554,0.131 1.462,0.159C1.426,0.174 1.336,0.181 1.194,0.181C1.044,0.181 0.955,0.174 0.926,0.159C0.834,0.131 0.788,0.06 0.788,-0.055C0.538,0.159 0.241,0.267 -0.101,0.267C-0.494,0.267 -0.816,0.132 -1.07,-0.136C-1.323,-0.405 -1.449,-0.732 -1.449,-1.119C-1.449,-1.592 -1.313,-1.976 -1.039,-2.273C-0.766,-2.571 -0.406,-2.719 0.042,-2.719" style="fill:#fff;fill-rule:nonzero;"/>
        </g>
        <g transform="matrix(1,0,0,1,24.793,20.7919)">
            <path d="M0,-1.017L0,0.738C0,0.852 -0.047,0.923 -0.141,0.952C-0.176,0.966 -0.267,0.974 -0.412,0.974C-0.563,0.974 -0.654,0.966 -0.683,0.952C-0.777,0.923 -0.824,0.852 -0.824,0.738L-0.824,-1.349C-0.824,-1.506 -0.873,-1.606 -0.971,-1.648C-1.02,-1.67 -1.122,-1.681 -1.276,-1.681C-1.431,-1.681 -1.603,-1.613 -1.792,-1.477C-1.981,-1.341 -2.076,-1.221 -2.076,-1.114L-2.076,0.738C-2.076,0.852 -2.123,0.923 -2.217,0.952C-2.253,0.966 -2.344,0.974 -2.488,0.974C-2.64,0.974 -2.73,0.966 -2.759,0.952C-2.853,0.923 -2.9,0.852 -2.9,0.737L-2.9,-1.733C-2.9,-1.848 -2.854,-1.919 -2.761,-1.948C-2.732,-1.962 -2.643,-1.969 -2.493,-1.969C-2.351,-1.969 -2.262,-1.962 -2.226,-1.948C-2.133,-1.918 -2.087,-1.845 -2.087,-1.726C-2.087,-1.66 -2.08,-1.627 -2.065,-1.627C-2.051,-1.627 -2.004,-1.652 -1.926,-1.702C-1.627,-1.894 -1.341,-1.991 -1.07,-1.991C-0.785,-1.991 -0.535,-1.896 -0.321,-1.707C-0.106,-1.518 0,-1.288 0,-1.017" style="fill:#fff;fill-rule:nonzero;"/>
        </g>
        <g transform="matrix(1,0,0,1,25.5151,20.352)">
            <path d="M0,0.001C0,-0.418 0.15,-0.776 0.45,-1.071C0.75,-1.366 1.118,-1.514 1.552,-1.514C1.809,-1.514 2.066,-1.402 2.323,-1.178C2.358,-1.143 2.376,-1.101 2.376,-1.052C2.376,-0.989 2.348,-0.957 2.29,-0.957C2.261,-0.957 2.229,-0.968 2.194,-0.988C1.906,-1.16 1.69,-1.246 1.546,-1.246C1.223,-1.246 1.007,-1.157 0.9,-0.979C0.85,-0.738 0.825,-0.411 0.825,0.001C0.825,0.413 0.85,0.74 0.9,0.981C1.007,1.159 1.223,1.247 1.546,1.247C1.69,1.247 1.906,1.158 2.194,0.98C2.229,0.959 2.261,0.948 2.29,0.948C2.348,0.948 2.376,0.98 2.376,1.044C2.376,1.094 2.358,1.137 2.323,1.172C2.066,1.401 1.809,1.515 1.552,1.515C1.118,1.515 0.75,1.368 0.45,1.073C0.15,0.778 0,0.42 0,0.001" style="fill:#fff;fill-rule:nonzero;"/>
        </g>
        <g transform="matrix(1,0,0,1,29.8057,20.2514)">
            <path d="M0,0.171C0.251,0.171 0.479,0.101 0.679,-0.039C0.88,-0.18 0.979,-0.361 0.979,-0.584C0.979,-0.965 0.732,-1.156 0.236,-1.156C-0.123,-1.156 -0.363,-1.056 -0.485,-0.854C-0.528,-0.667 -0.554,-0.415 -0.561,-0.099C-0.568,-0.012 -0.496,0.056 -0.346,0.106C-0.223,0.149 -0.107,0.171 0,0.171M-0.052,0.396L-0.226,0.396C-0.312,0.389 -0.392,0.409 -0.463,0.456C-0.535,0.503 -0.568,0.569 -0.561,0.655C-0.547,0.843 -0.524,0.998 -0.496,1.121C-0.431,1.23 -0.341,1.298 -0.224,1.327C-0.175,1.341 -0.051,1.348 0.145,1.348C0.39,1.348 0.643,1.267 0.903,1.104C0.939,1.081 0.972,1.07 1.001,1.07C1.059,1.07 1.087,1.103 1.087,1.169C1.087,1.219 1.069,1.263 1.034,1.299C0.799,1.51 0.505,1.616 0.156,1.616C-0.279,1.616 -0.645,1.475 -0.94,1.192C-1.237,0.909 -1.384,0.556 -1.384,0.134C-1.384,-0.303 -1.226,-0.675 -0.909,-0.983C-0.592,-1.291 -0.18,-1.445 0.327,-1.445C0.562,-1.445 0.781,-1.377 0.979,-1.242C1.194,-1.085 1.302,-0.889 1.302,-0.653C1.302,-0.31 1.181,-0.05 0.938,0.128C0.697,0.307 0.367,0.396 -0.052,0.396" style="fill:#fff;fill-rule:nonzero;"/>
        </g>
        <g transform="matrix(1,0,0,1,37.835,15.2699)">
            <path d="M0,12.735C-1.466,16.158 -2.329,18.413 -5.477,21.204C-8.624,23.992 -12.416,25.388 -16.851,25.388C-22.36,25.388 -26.812,23.671 -30.211,20.238C-33.608,16.803 -35.308,12.35 -35.308,6.878C-35.308,1.584 -33.528,-2.995 -29.969,-6.858C-26.41,-10.721 -22.038,-12.653 -16.851,-12.653C-11.021,-12.653 -6.657,-10.775 -3.76,-7.019C-3.365,-6.483 -3.169,-6.16 -3.169,-6.053C-3.169,-5.516 -3.402,-5.249 -3.866,-5.249C-4.117,-5.249 -4.438,-5.463 -4.832,-5.892C-8.303,-9.612 -12.094,-11.473 -16.208,-11.473C-20.606,-11.473 -23.952,-9.576 -26.241,-5.785C-28.208,-2.53 -29.191,1.691 -29.191,6.878C-29.191,12.172 -28.136,16.302 -26.026,19.271C-23.809,22.383 -20.572,23.938 -16.314,23.938C-13.667,23.938 -10.771,22.991 -7.623,21.095C-4.117,18.95 -1.984,16.272 -2.202,13.231L0,12.735Z" style="fill:#fff;fill-rule:nonzero;stroke:#fff;stroke-width:0.81px;"/>
        </g>
        <g transform="matrix(1,0,0,1,45.2686,35.1701)">
            <path d="M0,13.45C-0.443,13.55 -0.665,13.429 -0.665,13.087C-0.665,12.945 -0.585,12.836 -0.424,12.756C0.583,12.313 1.086,11.589 1.086,10.582L1.086,7.505C1.086,7.324 1.055,7.233 0.995,7.233C0.975,7.233 0.854,7.304 0.632,7.444C-0.213,7.987 -1.018,8.259 -1.781,8.259C-2.586,8.259 -3.291,7.993 -3.895,7.46C-4.497,6.927 -4.799,6.277 -4.799,5.513L-4.799,0.563C-4.799,0.242 -4.669,0.041 -4.406,-0.039C-4.307,-0.079 -4.056,-0.1 -3.652,-0.1C-3.229,-0.079 -2.979,-0.06 -2.898,-0.039C-2.637,0.041 -2.505,0.242 -2.505,0.563L-2.505,6.448C-2.505,6.891 -2.365,7.173 -2.083,7.293C-1.942,7.354 -1.651,7.384 -1.208,7.384C-0.767,7.384 -0.272,7.193 0.271,6.811C0.813,6.429 1.086,6.087 1.086,5.785L1.086,0.563C1.086,0.242 1.216,0.041 1.479,-0.039C1.559,-0.06 1.811,-0.079 2.232,-0.1C2.634,-0.1 2.886,-0.079 2.986,-0.039C3.248,0.041 3.378,0.242 3.378,0.563L3.378,9.285C3.378,10.21 3.047,11.09 2.383,11.926C1.719,12.761 0.925,13.268 0,13.45" style="fill:#fff;fill-rule:nonzero;"/>
        </g>
        <g transform="matrix(1,0,0,1,21.4219,25.0492)">
            <path d="M0,1.734C0,1.734 0.59,7.568 -13.07,5.058C-13.07,5.058 -20.232,3.765 -15.978,-0.628C-15.978,-0.628 -10.522,-5.834 -11.113,3.212C-11.113,3.212 -11.5,0.553 -13.586,-0.425C-13.586,-0.425 -16.042,0.037 -14.694,1.588C-14.694,1.588 -9.008,6.904 -1.92,0.037C-1.92,0.037 -0.074,-1.441 0,1.734" style="fill:#231f20;fill-rule:nonzero;"/>
        </g>
        <g transform="matrix(1,0,0,1,21.9043,24.7777)">
            <path d="M0,1.736C0,1.736 0.59,7.569 -13.07,5.058C-13.07,5.058 -20.232,3.767 -15.978,-0.627C-15.978,-0.627 -10.522,-5.833 -11.113,3.214C-11.113,3.214 -11.5,0.554 -13.586,-0.424C-13.586,-0.424 -16.042,0.038 -14.694,1.589C-14.694,1.589 -9.009,6.905 -1.92,0.038C-1.92,0.038 -0.074,-1.439 0,1.736" style="fill:#fff;fill-rule:nonzero;"/>
        </g>
        <g transform="matrix(1,0,0,1,30.6338,37.4824)">
            <path d="M0,2.875L0,-2.091C0,-2.413 0.132,-2.625 0.396,-2.727C0.499,-2.747 0.754,-2.757 1.161,-2.757C1.589,-2.757 1.845,-2.737 1.926,-2.696C2.191,-2.614 2.323,-2.413 2.323,-2.091L2.323,3.817C2.323,4.263 2.461,4.545 2.739,4.666C2.877,4.727 3.163,4.757 3.599,4.757C4.034,4.757 4.52,4.564 5.053,4.182C5.587,3.798 5.854,3.454 5.854,3.151L5.854,-2.091C5.854,-2.413 5.986,-2.625 6.251,-2.727C6.354,-2.747 6.607,-2.757 7.016,-2.757C7.444,-2.757 7.699,-2.737 7.78,-2.697C8.045,-2.616 8.177,-2.413 8.177,-2.091L8.177,4.876C8.177,5.198 8.046,5.401 7.785,5.481C7.705,5.521 7.454,5.541 7.031,5.541C6.628,5.541 6.377,5.521 6.276,5.481C6.014,5.401 5.885,5.2 5.885,4.878C5.885,4.696 5.863,4.606 5.823,4.606C5.783,4.606 5.652,4.677 5.431,4.816C4.586,5.361 3.781,5.632 3.017,5.632C2.212,5.632 1.508,5.364 0.904,4.83C0.302,4.295 0,3.644 0,2.875" style="fill:#231f20;fill-rule:nonzero;"/>
        </g>
        <g transform="matrix(1,0,0,1,30.2734,37.8877)">
            <path d="M0,2.875L0,-2.091C0,-2.414 0.132,-2.626 0.397,-2.727C0.499,-2.747 0.754,-2.757 1.161,-2.757C1.59,-2.757 1.845,-2.737 1.926,-2.696C2.191,-2.614 2.324,-2.413 2.324,-2.091L2.324,3.817C2.324,4.263 2.462,4.545 2.739,4.666C2.877,4.727 3.164,4.757 3.599,4.757C4.035,4.757 4.519,4.564 5.054,4.182C5.586,3.797 5.854,3.454 5.854,3.151L5.854,-2.091C5.854,-2.413 5.987,-2.625 6.252,-2.727C6.354,-2.747 6.607,-2.757 7.016,-2.757C7.444,-2.757 7.698,-2.737 7.78,-2.697C8.045,-2.616 8.178,-2.414 8.178,-2.091L8.178,4.876C8.178,5.198 8.048,5.401 7.786,5.481C7.704,5.521 7.454,5.541 7.03,5.541C6.628,5.541 6.377,5.521 6.276,5.481C6.016,5.401 5.885,5.2 5.885,4.878C5.885,4.696 5.864,4.606 5.824,4.606C5.783,4.606 5.652,4.677 5.432,4.816C4.587,5.36 3.781,5.632 3.018,5.632C2.212,5.632 1.509,5.364 0.905,4.83C0.302,4.295 0,3.644 0,2.875" style="fill:#fff;fill-rule:nonzero;"/>
        </g>
        <g transform="matrix(1,0,0,1,23.0371,24.7777)">
            <path d="M0,1.736C0,1.736 -0.591,7.569 13.07,5.058C13.07,5.058 20.231,3.767 15.978,-0.627C15.978,-0.627 10.521,-5.833 11.113,3.214C11.113,3.214 11.501,0.554 13.587,-0.424C13.587,-0.424 16.041,0.038 14.694,1.589C14.694,1.589 9.008,6.905 1.92,0.038C1.92,0.038 0.074,-1.439 0,1.736" style="fill:#fff;fill-rule:nonzero;"/>
        </g>
    </g>
</svg>
